{
	"asset":{
		"version":"2.0",
		"generator":""
	},
	"scenes":[{
		"nodes":[0,
		1,
		2,
		3,
		4,
		5]
	}],
	"nodes":[{
		"name":"Bottle_Proxy",
		"mesh":0,
		"translation":[0.0,
		0.22496159374713899,
		0.0],
		"rotation":[0.0,
		0.0,
		0.0,
		-1.0],
		"scale":[1.0,
		1.0,
		1.0]
	},
	{
		"name":"Bottle",
		"mesh":1,
		"translation":[-4.257892764372315e-18,
		0.05326134338974953,
		0.0],
		"rotation":[0.0,
		0.0,
		0.0,
		-1.0],
		"scale":[1.0,
		1.0,
		1.0]
	},
	{
		"name":"Top_Proxy",
		"mesh":2,
		"translation":[0.0,
		0.11470664292573929,
		0.0],
		"rotation":[0.0,
		0.0,
		0.0,
		-1.0],
		"scale":[1.0,
		1.0,
		1.0]
	},
	{
		"name":"Top",
		"mesh":3,
		"translation":[-3.999999975690116e-8,
		0.2450808733701706,
		4.930380547428728e-34],
		"rotation":[0.7071067690849304,
		0.0,
		0.0,
		-0.7071067690849304],
		"scale":[1.0,
		1.0,
		1.0]
	},
	{
		"name":"Neck",
		"mesh":4,
		"translation":[0.0,
		0.181163027882576,
		-7.241496572528908e-34],
		"rotation":[0.0,
		0.0,
		0.0,
		-1.0],
		"scale":[1.0,
		1.0,
		1.0]
	},
	{
		"name":"Neck_Proxy",
		"mesh":5,
		"translation":[0.0,
		0.02500613033771515,
		0.0],
		"rotation":[0.0,
		0.0,
		0.0,
		-1.0],
		"scale":[1.0,
		1.0,
		1.0]
	}],
	"materials":[{
		"pbrMetallicRoughness":{
			"baseColorFactor":[0.8,
			0.8,
			0.8,
			1.0],
			"metallicFactor":0.0,
			"roughnessFactor":0.5
		},
		"emissiveFactor":[0.0,
		0.0,
		0.0],
		"alphaMode":"OPAQUE",
		"doubleSided":false,
		"name":"Mat"
	}],
	"meshes":[{
		"name":"Bottle_Proxy",
		"primitives":[{
			"attributes":{
				"POSITION":1,
				"NORMAL":2,
				"TEXCOORD_0":3
			},
			"indices":0,
			"material":0
		}]
	},
	{
		"name":"Bottle",
		"primitives":[{
			"attributes":{
				"POSITION":5,
				"NORMAL":6,
				"TEXCOORD_0":7
			},
			"indices":4,
			"material":0
		}]
	},
	{
		"name":"Top_Proxy",
		"primitives":[{
			"attributes":{
				"POSITION":9,
				"NORMAL":10,
				"TEXCOORD_0":11
			},
			"indices":8,
			"material":0
		}]
	},
	{
		"name":"Top",
		"primitives":[{
			"attributes":{
				"POSITION":13,
				"NORMAL":14,
				"TEXCOORD_0":15
			},
			"indices":12,
			"material":0
		}]
	},
	{
		"name":"Neck",
		"primitives":[{
			"attributes":{
				"POSITION":17,
				"NORMAL":18,
				"TEXCOORD_0":19
			},
			"indices":16,
			"material":0
		}]
	},
	{
		"name":"Neck_Proxy",
		"primitives":[{
			"attributes":{
				"POSITION":21,
				"NORMAL":22,
				"TEXCOORD_0":23
			},
			"indices":20,
			"material":0
		}]
	}],
	"accessors":[{
		"bufferView":0,
		"type":"SCALAR",
		"componentType":5123,
		"count":288,
		"byteOffset":0,
		"min":[0],
		"max":[147]
	},
	{
		"bufferView":1,
		"type":"VEC3",
		"componentType":5126,
		"count":148,
		"byteOffset":0,
		"min":[-0.09283743053674698,
		-0.22485287487506867,
		-0.09283743053674698],
		"max":[0.09283743053674698,
		-0.006021775770932436,
		0.09283743053674698]
	},
	{
		"bufferView":1,
		"type":"VEC3",
		"componentType":5126,
		"count":148,
		"byteOffset":12,
		"min":[-0.9238885045051575,
		-1.0,
		-0.9238885045051575],
		"max":[0.9238885045051575,
		1.0,
		0.9238885045051575]
	},
	{
		"bufferView":1,
		"type":"VEC2",
		"componentType":5126,
		"count":148,
		"byteOffset":24,
		"min":[0.0,
		0.0],
		"max":[1.0,
		1.0]
	},
	{
		"bufferView":2,
		"type":"SCALAR",
		"componentType":5123,
		"count":83172,
		"byteOffset":0,
		"min":[0],
		"max":[19573]
	},
	{
		"bufferView":3,
		"type":"VEC3",
		"componentType":5126,
		"count":19574,
		"byteOffset":0,
		"min":[-0.09032450616359711,
		-0.05285971984267235,
		-0.09035374969244003],
		"max":[0.09032447636127472,
		0.16489574313163758,
		0.09034960716962815]
	},
	{
		"bufferView":3,
		"type":"VEC3",
		"componentType":5126,
		"count":19574,
		"byteOffset":12,
		"min":[-0.9999609589576721,
		-1.0,
		-0.9998728632926941],
		"max":[0.9999513030052185,
		1.0,
		0.9998950362205505]
	},
	{
		"bufferView":3,
		"type":"VEC2",
		"componentType":5126,
		"count":19574,
		"byteOffset":24,
		"min":[0.0,
		0.0],
		"max":[1.0,
		1.0]
	},
	{
		"bufferView":4,
		"type":"SCALAR",
		"componentType":5123,
		"count":288,
		"byteOffset":0,
		"min":[0],
		"max":[145]
	},
	{
		"bufferView":5,
		"type":"VEC3",
		"componentType":5126,
		"count":146,
		"byteOffset":0,
		"min":[-0.06072023883461952,
		0.07328906655311585,
		-0.06072023883461952],
		"max":[0.06072023883461952,
		0.15327437222003938,
		0.06072023883461952]
	},
	{
		"bufferView":5,
		"type":"VEC3",
		"componentType":5126,
		"count":146,
		"byteOffset":12,
		"min":[-0.9238885045051575,
		-1.0,
		-0.9238885045051575],
		"max":[0.9238885045051575,
		1.0,
		0.9238885045051575]
	},
	{
		"bufferView":5,
		"type":"VEC2",
		"componentType":5126,
		"count":146,
		"byteOffset":24,
		"min":[0.0,
		0.0],
		"max":[1.0,
		1.0]
	},
	{
		"bufferView":6,
		"type":"SCALAR",
		"componentType":5123,
		"count":8448,
		"byteOffset":0,
		"min":[0],
		"max":[1716]
	},
	{
		"bufferView":7,
		"type":"VEC3",
		"componentType":5126,
		"count":1717,
		"byteOffset":0,
		"min":[-0.05692490190267563,
		-0.05692491680383682,
		-0.05682116001844406],
		"max":[0.05692492425441742,
		0.05692490562796593,
		0.02101619727909565]
	},
	{
		"bufferView":7,
		"type":"VEC3",
		"componentType":5126,
		"count":1717,
		"byteOffset":12,
		"min":[-0.9978878498077393,
		-0.9967647194862366,
		-1.0],
		"max":[0.9967647194862366,
		0.9978878498077393,
		1.0]
	},
	{
		"bufferView":7,
		"type":"VEC2",
		"componentType":5126,
		"count":1717,
		"byteOffset":24,
		"min":[0.00990787148475647,
		0.0052293529734015469],
		"max":[0.9894484281539917,
		0.988555908203125]
	},
	{
		"bufferView":8,
		"type":"SCALAR",
		"componentType":5123,
		"count":8832,
		"byteOffset":0,
		"min":[0],
		"max":[1624]
	},
	{
		"bufferView":9,
		"type":"VEC3",
		"componentType":5126,
		"count":1625,
		"byteOffset":0,
		"min":[-0.07480934262275696,
		-0.03363111615180969,
		-0.07480931282043457],
		"max":[0.07480934262275696,
		0.02900409698486328,
		0.07480932772159577]
	},
	{
		"bufferView":9,
		"type":"VEC3",
		"componentType":5126,
		"count":1625,
		"byteOffset":12,
		"min":[-0.9969852566719055,
		-0.9787825345993042,
		-0.9969852566719055],
		"max":[0.9969852566719055,
		0.9999898672103882,
		0.9948161840438843]
	},
	{
		"bufferView":9,
		"type":"VEC2",
		"componentType":5126,
		"count":1625,
		"byteOffset":24,
		"min":[0.010356992483139038,
		0.20976638793945313],
		"max":[0.989059567451477,
		0.8943240642547607]
	},
	{
		"bufferView":10,
		"type":"SCALAR",
		"componentType":5123,
		"count":192,
		"byteOffset":0,
		"min":[0],
		"max":[90]
	},
	{
		"bufferView":11,
		"type":"VEC3",
		"componentType":5126,
		"count":91,
		"byteOffset":0,
		"min":[-0.07808402180671692,
		0.12301331758499146,
		-0.07808402180671692],
		"max":[0.07808402180671692,
		0.18529430031776429,
		0.07808402180671692]
	},
	{
		"bufferView":11,
		"type":"VEC3",
		"componentType":5126,
		"count":91,
		"byteOffset":12,
		"min":[-0.9238885045051575,
		-1.0,
		-0.9238885045051575],
		"max":[0.9238885045051575,
		1.0,
		0.9238885045051575]
	},
	{
		"bufferView":11,
		"type":"VEC2",
		"componentType":5126,
		"count":91,
		"byteOffset":24,
		"min":[0.0,
		0.0],
		"max":[1.0,
		1.0]
	}],
	"bufferViews":[{
		"buffer":0,
		"byteOffset":0,
		"byteLength":576,
		"target":34963
	},
	{
		"buffer":0,
		"byteOffset":576,
		"byteLength":4736,
		"target":34962,
		"byteStride":32
	},
	{
		"buffer":1,
		"byteOffset":0,
		"byteLength":166344,
		"target":34963
	},
	{
		"buffer":1,
		"byteOffset":166344,
		"byteLength":626368,
		"target":34962,
		"byteStride":32
	},
	{
		"buffer":2,
		"byteOffset":0,
		"byteLength":576,
		"target":34963
	},
	{
		"buffer":2,
		"byteOffset":576,
		"byteLength":4672,
		"target":34962,
		"byteStride":32
	},
	{
		"buffer":3,
		"byteOffset":0,
		"byteLength":16896,
		"target":34963
	},
	{
		"buffer":3,
		"byteOffset":16896,
		"byteLength":54944,
		"target":34962,
		"byteStride":32
	},
	{
		"buffer":4,
		"byteOffset":0,
		"byteLength":17664,
		"target":34963
	},
	{
		"buffer":4,
		"byteOffset":17664,
		"byteLength":52000,
		"target":34962,
		"byteStride":32
	},
	{
		"buffer":5,
		"byteOffset":0,
		"byteLength":384,
		"target":34963
	},
	{
		"buffer":5,
		"byteOffset":384,
		"byteLength":2912,
		"target":34962,
		"byteStride":32
	}],
	"buffers":[{
		"uri":"data:application/octet-stream;base64,",
		"byteLength":5312
	},
	{
		"uri":"data:application/octet-stream;base64,",
		"byteLength":792712
	},
	{
		"uri":"data:application/octet-stream;base64,",
		"byteLength":5248
	},
	{
		"uri":"data:application/octet-stream;base64,",
		"byteLength":71840
	},
	{
		"uri":"data:application/octet-stream;base64,",
		"byteLength":69664
	},
	{
		"uri":"data:application/octet-stream;base64,",
		"byteLength":3296
	}]
}