{
	"asset":{
		"version":"2.0",
		"generator":""
	},
	"scenes":[{
		"nodes":[0,
		1,
		2,
		3,
		4,
		5,
		6]
	}],
	"nodes":[{
		"name":"Liquid",
		"mesh":0,
		"translation":[-4.257892764372315e-18,
		0.05326134338974953,
		0.0],
		"rotation":[0.0,
		0.0,
		0.0,
		-1.0],
		"scale":[1.0,
		1.0,
		1.0]
	},
	{
		"name":"Bottle_Proxy",
		"mesh":1,
		"translation":[0.0,
		0.22496159374713899,
		0.0],
		"rotation":[0.0,
		0.0,
		0.0,
		-1.0],
		"scale":[1.0,
		1.0,
		1.0]
	},
	{
		"name":"Bottle",
		"mesh":2,
		"translation":[-4.257892764372315e-18,
		0.05326134338974953,
		0.0],
		"rotation":[0.0,
		0.0,
		0.0,
		-1.0],
		"scale":[1.0,
		1.0,
		1.0]
	},
	{
		"name":"Top_Proxy",
		"mesh":3,
		"translation":[0.0,
		0.11470664292573929,
		0.0],
		"rotation":[0.0,
		0.0,
		0.0,
		-1.0],
		"scale":[1.0,
		1.0,
		1.0]
	},
	{
		"name":"Top",
		"mesh":4,
		"translation":[-3.999999975690116e-8,
		0.2450808733701706,
		4.930380547428728e-34],
		"rotation":[0.7071067690849304,
		0.0,
		0.0,
		-0.7071067690849304],
		"scale":[1.0,
		1.0,
		1.0]
	},
	{
		"name":"Neck",
		"mesh":5,
		"translation":[0.0,
		0.181163027882576,
		-7.241496572528908e-34],
		"rotation":[0.0,
		0.0,
		0.0,
		-1.0],
		"scale":[1.0,
		1.0,
		1.0]
	},
	{
		"name":"Neck_Proxy",
		"mesh":6,
		"translation":[0.0,
		0.02500613033771515,
		0.0],
		"rotation":[0.0,
		0.0,
		0.0,
		-1.0],
		"scale":[1.0,
		1.0,
		1.0]
	}],
	"meshes":[{
		"name":"Liquid",
		"primitives":[{
			"attributes":{
				"POSITION":1,
				"TEXCOORD_0":2
			},
			"indices":0
		}]
	},
	{
		"name":"Bottle_Proxy",
		"primitives":[{
			"attributes":{
				"POSITION":4,
				"TEXCOORD_0":5
			},
			"indices":3
		}]
	},
	{
		"name":"Bottle",
		"primitives":[{
			"attributes":{
				"POSITION":7,
				"TEXCOORD_0":8
			},
			"indices":6
		}]
	},
	{
		"name":"Top_Proxy",
		"primitives":[{
			"attributes":{
				"POSITION":10,
				"TEXCOORD_0":11
			},
			"indices":9
		}]
	},
	{
		"name":"Top",
		"primitives":[{
			"attributes":{
				"POSITION":13,
				"TEXCOORD_0":14
			},
			"indices":12
		}]
	},
	{
		"name":"Neck",
		"primitives":[{
			"attributes":{
				"POSITION":16,
				"TEXCOORD_0":17
			},
			"indices":15
		}]
	},
	{
		"name":"Neck_Proxy",
		"primitives":[{
			"attributes":{
				"POSITION":19,
				"TEXCOORD_0":20
			},
			"indices":18
		}]
	}],
	"accessors":[{
		"bufferView":0,
		"type":"SCALAR",
		"componentType":5123,
		"count":594,
		"byteOffset":0,
		"min":[0],
		"max":[100]
	},
	{
		"bufferView":1,
		"type":"VEC3",
		"componentType":5126,
		"count":101,
		"byteOffset":0,
		"min":[-0.0638522282242775,
		-0.015315873548388482,
		-0.06453930586576462],
		"max":[0.06444194912910462,
		0.08931300789117813,
		0.06422886252403259]
	},
	{
		"bufferView":1,
		"type":"VEC2",
		"componentType":5126,
		"count":101,
		"byteOffset":12,
		"min":[0.5128220319747925,
		0.610419750213623],
		"max":[0.9702661633491516,
		0.9429013729095459]
	},
	{
		"bufferView":2,
		"type":"SCALAR",
		"componentType":5123,
		"count":288,
		"byteOffset":0,
		"min":[0],
		"max":[67]
	},
	{
		"bufferView":3,
		"type":"VEC3",
		"componentType":5126,
		"count":68,
		"byteOffset":0,
		"min":[-0.09283743053674698,
		-0.22485287487506867,
		-0.09283743053674698],
		"max":[0.09283743053674698,
		-0.006021775770932436,
		0.09283743053674698]
	},
	{
		"bufferView":3,
		"type":"VEC2",
		"componentType":5126,
		"count":68,
		"byteOffset":12,
		"min":[0.0,
		0.0],
		"max":[1.0,
		1.0]
	},
	{
		"bufferView":4,
		"type":"SCALAR",
		"componentType":5123,
		"count":83172,
		"byteOffset":0,
		"min":[0],
		"max":[17562]
	},
	{
		"bufferView":5,
		"type":"VEC3",
		"componentType":5126,
		"count":17563,
		"byteOffset":0,
		"min":[-0.09032450616359711,
		-0.05285971984267235,
		-0.09035374969244003],
		"max":[0.09032447636127472,
		0.16489574313163758,
		0.09034960716962815]
	},
	{
		"bufferView":5,
		"type":"VEC2",
		"componentType":5126,
		"count":17563,
		"byteOffset":12,
		"min":[0.0,
		0.0],
		"max":[1.0,
		1.0]
	},
	{
		"bufferView":6,
		"type":"SCALAR",
		"componentType":5123,
		"count":288,
		"byteOffset":0,
		"min":[0],
		"max":[67]
	},
	{
		"bufferView":7,
		"type":"VEC3",
		"componentType":5126,
		"count":68,
		"byteOffset":0,
		"min":[-0.06072023883461952,
		0.07328906655311585,
		-0.06072023883461952],
		"max":[0.06072023883461952,
		0.15327437222003938,
		0.06072023883461952]
	},
	{
		"bufferView":7,
		"type":"VEC2",
		"componentType":5126,
		"count":68,
		"byteOffset":12,
		"min":[0.0,
		0.0],
		"max":[1.0,
		1.0]
	},
	{
		"bufferView":8,
		"type":"SCALAR",
		"componentType":5123,
		"count":8448,
		"byteOffset":0,
		"min":[0],
		"max":[1716]
	},
	{
		"bufferView":9,
		"type":"VEC3",
		"componentType":5126,
		"count":1717,
		"byteOffset":0,
		"min":[-0.05692490190267563,
		-0.05692491680383682,
		-0.05682116001844406],
		"max":[0.05692492425441742,
		0.05692490562796593,
		0.02101619727909565]
	},
	{
		"bufferView":9,
		"type":"VEC2",
		"componentType":5126,
		"count":1717,
		"byteOffset":12,
		"min":[0.00990787148475647,
		0.0052293529734015469],
		"max":[0.9894484281539917,
		0.988555908203125]
	},
	{
		"bufferView":10,
		"type":"SCALAR",
		"componentType":5123,
		"count":8832,
		"byteOffset":0,
		"min":[0],
		"max":[1624]
	},
	{
		"bufferView":11,
		"type":"VEC3",
		"componentType":5126,
		"count":1625,
		"byteOffset":0,
		"min":[-0.07480934262275696,
		-0.03363111615180969,
		-0.07480931282043457],
		"max":[0.07480934262275696,
		0.02900409698486328,
		0.07480932772159577]
	},
	{
		"bufferView":11,
		"type":"VEC2",
		"componentType":5126,
		"count":1625,
		"byteOffset":12,
		"min":[0.010356992483139038,
		0.20976638793945313],
		"max":[0.989059567451477,
		0.8943240642547607]
	},
	{
		"bufferView":12,
		"type":"SCALAR",
		"componentType":5123,
		"count":192,
		"byteOffset":0,
		"min":[0],
		"max":[51]
	},
	{
		"bufferView":13,
		"type":"VEC3",
		"componentType":5126,
		"count":52,
		"byteOffset":0,
		"min":[-0.07808402180671692,
		0.12301331758499146,
		-0.07808402180671692],
		"max":[0.07808402180671692,
		0.18529430031776429,
		0.07808402180671692]
	},
	{
		"bufferView":13,
		"type":"VEC2",
		"componentType":5126,
		"count":52,
		"byteOffset":12,
		"min":[0.0,
		0.0],
		"max":[1.0,
		1.0]
	}],
	"bufferViews":[{
		"buffer":0,
		"byteOffset":0,
		"byteLength":1188,
		"target":34963
	},
	{
		"buffer":0,
		"byteOffset":1188,
		"byteLength":2020,
		"target":34962,
		"byteStride":20
	},
	{
		"buffer":1,
		"byteOffset":0,
		"byteLength":576,
		"target":34963
	},
	{
		"buffer":1,
		"byteOffset":576,
		"byteLength":1360,
		"target":34962,
		"byteStride":20
	},
	{
		"buffer":2,
		"byteOffset":0,
		"byteLength":166344,
		"target":34963
	},
	{
		"buffer":2,
		"byteOffset":166344,
		"byteLength":351260,
		"target":34962,
		"byteStride":20
	},
	{
		"buffer":3,
		"byteOffset":0,
		"byteLength":576,
		"target":34963
	},
	{
		"buffer":3,
		"byteOffset":576,
		"byteLength":1360,
		"target":34962,
		"byteStride":20
	},
	{
		"buffer":4,
		"byteOffset":0,
		"byteLength":16896,
		"target":34963
	},
	{
		"buffer":4,
		"byteOffset":16896,
		"byteLength":34340,
		"target":34962,
		"byteStride":20
	},
	{
		"buffer":5,
		"byteOffset":0,
		"byteLength":17664,
		"target":34963
	},
	{
		"buffer":5,
		"byteOffset":17664,
		"byteLength":32500,
		"target":34962,
		"byteStride":20
	},
	{
		"buffer":6,
		"byteOffset":0,
		"byteLength":384,
		"target":34963
	},
	{
		"buffer":6,
		"byteOffset":384,
		"byteLength":1040,
		"target":34962,
		"byteStride":20
	}],
	"buffers":[{
		"uri":"data:application/octet-stream;base64,",
		"byteLength":3208
	},
	{
		"uri":"data:application/octet-stream;base64,",
		"byteLength":1936
	},
	{
		"uri":"data:application/octet-stream;base64,",
		"byteLength":517604
	},
	{
		"uri":"data:application/octet-stream;base64,",
		"byteLength":1936
	},
	{
		"uri":"data:application/octet-stream;base64,",
		"byteLength":51236
	},
	{
		"uri":"data:application/octet-stream;base64,",
		"byteLength":50164
	},
	{
		"uri":"data:application/octet-stream;base64,",
		"byteLength":1424
	}]
}