{
	"scenes":[{
		"nodes":[0,
		1,
		2,
		3]
	}],
	"asset":{
		"version":"2.0",
		"generator":""
	},
	"nodes":[{
		"name":"Liquid.1",
		"mesh":0,
		"translation":[-4.257892764372315e-18,
		0.05326134338974953,
		0.0],
		"rotation":[0.0,
		0.0,
		0.0,
		-1.0],
		"scale":[1.0,
		1.0,
		1.0]
	},
	{
		"name":"Bottle.1",
		"mesh":1,
		"translation":[-4.257892764372315e-18,
		0.05326134338974953,
		0.0],
		"rotation":[0.0,
		0.0,
		0.0,
		-1.0],
		"scale":[1.0,
		1.0,
		1.0]
	},
	{
		"name":"Top",
		"mesh":2,
		"translation":[-3.999999975690116e-8,
		0.2450808733701706,
		4.930380547428728e-34],
		"rotation":[0.7071067690849304,
		0.0,
		0.0,
		-0.7071067690849304],
		"scale":[1.0,
		1.0,
		1.0]
	},
	{
		"name":"Neck",
		"mesh":3,
		"translation":[0.0,
		0.181163027882576,
		-7.241496572528908e-34],
		"rotation":[0.0,
		0.0,
		0.0,
		-1.0],
		"scale":[1.0,
		1.0,
		1.0]
	}],
	"meshes":[{
		"name":"Liquid.1",
		"primitives":[{
			"attributes":{
				"POSITION":1,
				"NORMAL":2,
				"TEXCOORD_0":3
			},
			"indices":0,
			"material":0
		}]
	},
	{
		"name":"Bottle.1",
		"primitives":[{
			"attributes":{
				"POSITION":5,
				"NORMAL":6,
				"TEXCOORD_0":7
			},
			"indices":4,
			"material":0
		}]
	},
	{
		"name":"Top",
		"primitives":[{
			"attributes":{
				"POSITION":9,
				"NORMAL":10,
				"TEXCOORD_0":11
			},
			"indices":8,
			"material":0
		}]
	},
	{
		"name":"Neck",
		"primitives":[{
			"attributes":{
				"POSITION":13,
				"NORMAL":14,
				"TEXCOORD_0":15
			},
			"indices":12,
			"material":0
		}]
	}],
	"accessors":[{
		"bufferView":0,
		"componentType":5123,
		"type":"SCALAR",
		"count":18096,
		"byteOffset":0,
		"min":[0],
		"max":[3490]
	},
	{
		"bufferView":1,
		"componentType":5126,
		"type":"VEC3",
		"count":3491,
		"byteOffset":0,
		"min":[-0.06556838750839234,
		-0.015317154116928578,
		-0.06552524864673615],
		"max":[0.06486587226390839,
		0.08931300789117813,
		0.06491085141897202]
	},
	{
		"bufferView":1,
		"componentType":5126,
		"type":"VEC3",
		"count":3491,
		"byteOffset":12,
		"min":[-0.9982021450996399,
		-1.0,
		-0.9982021450996399],
		"max":[0.9982021450996399,
		1.0,
		0.9982020258903503]
	},
	{
		"bufferView":1,
		"componentType":5126,
		"type":"VEC2",
		"count":3491,
		"byteOffset":24,
		"min":[0.4955505430698395,
		0.6014748811721802],
		"max":[0.9908243417739868,
		0.945452094078064]
	},
	{
		"bufferView":2,
		"componentType":5123,
		"type":"SCALAR",
		"count":246342,
		"byteOffset":0,
		"min":[0],
		"max":[42244]
	},
	{
		"bufferView":3,
		"componentType":5126,
		"type":"VEC3",
		"count":42245,
		"byteOffset":0,
		"min":[-0.09032450616359711,
		-0.05285971984267235,
		-0.09035374969244003],
		"max":[0.09032447636127472,
		0.16489574313163758,
		0.09035374969244003]
	},
	{
		"bufferView":3,
		"componentType":5126,
		"type":"VEC3",
		"count":42245,
		"byteOffset":12,
		"min":[-1.0,
		-1.0,
		-1.0],
		"max":[1.0,
		1.0,
		1.0]
	},
	{
		"bufferView":3,
		"componentType":5126,
		"type":"VEC2",
		"count":42245,
		"byteOffset":24,
		"min":[0.021390002220869066,
		0.009513329714536667],
		"max":[0.7969280481338501,
		0.6759940385818481]
	},
	{
		"bufferView":4,
		"componentType":5123,
		"type":"SCALAR",
		"count":14784,
		"byteOffset":0,
		"min":[0],
		"max":[2786]
	},
	{
		"bufferView":5,
		"componentType":5126,
		"type":"VEC3",
		"count":2787,
		"byteOffset":0,
		"min":[-0.05692490190267563,
		-0.05692491680383682,
		-0.05682126805186272],
		"max":[0.05692492425441742,
		0.05692490562796593,
		0.02101619727909565]
	},
	{
		"bufferView":5,
		"componentType":5126,
		"type":"VEC3",
		"count":2787,
		"byteOffset":12,
		"min":[-0.9968006014823914,
		-0.9978688359260559,
		-1.0],
		"max":[0.997691810131073,
		0.9979203343391419,
		1.0]
	},
	{
		"bufferView":5,
		"componentType":5126,
		"type":"VEC2",
		"count":2787,
		"byteOffset":24,
		"min":[0.00990787148475647,
		0.0052293529734015469],
		"max":[0.9894484281539917,
		0.988555908203125]
	},
	{
		"bufferView":6,
		"componentType":5123,
		"type":"SCALAR",
		"count":16896,
		"byteOffset":0,
		"min":[0],
		"max":[3004]
	},
	{
		"bufferView":7,
		"componentType":5126,
		"type":"VEC3",
		"count":3005,
		"byteOffset":0,
		"min":[-0.07480934262275696,
		-0.03363111615180969,
		-0.07480931282043457],
		"max":[0.07480934262275696,
		0.02905229479074478,
		0.07480932772159577]
	},
	{
		"bufferView":7,
		"componentType":5126,
		"type":"VEC3",
		"count":3005,
		"byteOffset":12,
		"min":[-0.9978834390640259,
		-0.9850913882255554,
		-0.99788498878479],
		"max":[0.9978834390640259,
		0.9999978542327881,
		0.9986493587493897]
	},
	{
		"bufferView":7,
		"componentType":5126,
		"type":"VEC2",
		"count":3005,
		"byteOffset":24,
		"min":[0.010356992483139038,
		0.20976638793945313],
		"max":[0.989059567451477,
		0.8943240642547607]
	}],
	"bufferViews":[{
		"buffer":0,
		"byteOffset":0,
		"byteLength":36192,
		"target":34963
	},
	{
		"buffer":0,
		"byteOffset":36192,
		"byteLength":111712,
		"target":34962,
		"byteStride":32
	},
	{
		"buffer":1,
		"byteOffset":0,
		"byteLength":492684,
		"target":34963
	},
	{
		"buffer":1,
		"byteOffset":492684,
		"byteLength":1351840,
		"target":34962,
		"byteStride":32
	},
	{
		"buffer":2,
		"byteOffset":0,
		"byteLength":29568,
		"target":34963
	},
	{
		"buffer":2,
		"byteOffset":29568,
		"byteLength":89184,
		"target":34962,
		"byteStride":32
	},
	{
		"buffer":3,
		"byteOffset":0,
		"byteLength":33792,
		"target":34963
	},
	{
		"buffer":3,
		"byteOffset":33792,
		"byteLength":96160,
		"target":34962,
		"byteStride":32
	}],
	"buffers":[{
		"uri":"data:application/octet-stream;base64,",
		"byteLength":147904
	},
	{
		"uri":"data:application/octet-stream;base64,",
		"byteLength":1844524
	},
	{
		"uri":"data:application/octet-stream;base64,",
		"byteLength":118752
	},
	{
		"uri":"data:application/octet-stream;base64,",
		"byteLength":129952
	}],
	"materials":[{
		"pbrMetallicRoughness":{
			"baseColorFactor":[1.0,
			1.0,
			1.0,
			1.0],
			"metallicFactor":1.0,
			"roughnessFactor":1.0
		},
		"emissiveFactor":[0.0,
		0.0,
		0.0],
		"doubleSided":false,
		"alphaMode":"OPAQUE",
		"name":"Mat"
	}]
}